<?xml version="1.0" encoding="UTF-8" standalone="no"?>
<!-- Created with Inkscape (http://www.inkscape.org/) -->

<svg
   xmlns:dc="http://purl.org/dc/elements/1.1/"
   xmlns:cc="http://creativecommons.org/ns#"
   xmlns:rdf="http://www.w3.org/1999/02/22-rdf-syntax-ns#"
   xmlns:svg="http://www.w3.org/2000/svg"
   xmlns="http://www.w3.org/2000/svg"
   xmlns:sodipodi="http://sodipodi.sourceforge.net/DTD/sodipodi-0.dtd"
   xmlns:inkscape="http://www.inkscape.org/namespaces/inkscape"
   width="210mm"
   height="297mm"
   viewBox="0 0 744.09448819 1052.3622047"
   id="svg2"
   version="1.1"
   inkscape:version="0.92.1 r15371"
   sodipodi:docname="logo.svg">
  <defs
     id="defs4">
    <filter
       inkscape:collect="always"
       style="color-interpolation-filters:sRGB"
       id="filter4887"
       x="-0.033032838"
       width="1.0660657"
       y="-0.039537579"
       height="1.0790752">
      <feGaussianBlur
         inkscape:collect="always"
         stdDeviation="0.96548635"
         id="feGaussianBlur4889" />
    </filter>
  </defs>
  <sodipodi:namedview
     id="base"
     pagecolor="#ffffff"
     bordercolor="#666666"
     borderopacity="1.0"
     inkscape:pageopacity="0.0"
     inkscape:pageshadow="2"
     inkscape:zoom="0.35"
     inkscape:cx="-89.612148"
     inkscape:cy="520"
     inkscape:document-units="px"
     inkscape:current-layer="layer1"
     showgrid="false"
     inkscape:window-width="1366"
     inkscape:window-height="705"
     inkscape:window-x="-8"
     inkscape:window-y="-8"
     inkscape:window-maximized="1" />
  <metadata
     id="metadata7">
    <rdf:RDF>
      <cc:Work
         rdf:about="">
        <dc:format>image/svg+xml</dc:format>
        <dc:type
           rdf:resource="http://purl.org/dc/dcmitype/StillImage" />
        <dc:title />
      </cc:Work>
    </rdf:RDF>
  </metadata>
  <g
     inkscape:label="Vrstva 1"
     inkscape:groupmode="layer"
     id="layer1">
    <g
       id="g4869"
       transform="matrix(4.4122292,0,0,4.429722,1276.7505,-2066.8772)"
       style="opacity:1;fill:#ffff00;filter:url(#filter4887)"
       inkscape:export-filename="C:\Users\Alex\Pictures\mag\m6.png"
       inkscape:export-xdpi="90"
       inkscape:export-ydpi="90">
      <path
         sodipodi:nodetypes="sssssssssss"
         inkscape:connector-curvature="0"
         id="path4863"
         d="m -215.625,497.36218 c 5.19549,-3.25479 3.99451,-14.91448 8.375,-16.375 4.3285,-1.44318 5.0614,13.16976 10.75,16.375 7.99148,4.50279 27.5,1 27.5,1 0.21546,6.15443 -17.27543,7.98676 -20.75,16 -3.29706,7.60386 4.50489,22.02094 2.375,24.75 -2.33971,2.9979 -11.8349,-12.62121 -19.75,-13.375 -6.07734,-0.57877 -16.75716,10.02632 -20.625,8 -2.85144,-1.49384 8.22632,-12.48666 6.625,-19 -1.96352,-7.98657 -18.68398,-11.9456 -18,-16.875 0.41527,-2.99285 16.86022,3.65959 23.5,-0.5 z"
         style="fill:#ffff00;fill-opacity:1;fill-rule:evenodd;stroke:none;stroke-width:1px;stroke-linecap:butt;stroke-linejoin:miter;stroke-opacity:1" />
      <path
         sodipodi:nodetypes="ssss"
         inkscape:connector-curvature="0"
         id="path4865"
         d="m -206.625,492.23718 c 3.2852,-0.3572 4.28689,6.92967 2.375,9.625 -0.50853,0.71691 -1.98222,0.8495 -2.625,0.25 -2.40795,-2.24584 -3.02343,-9.51908 0.25,-9.875 z"
         style="fill:#ffff00;fill-opacity:1;fill-rule:evenodd;stroke:none;stroke-width:1px;stroke-linecap:butt;stroke-linejoin:miter;stroke-opacity:1" />
      <path
         sodipodi:nodetypes="ccccscccccc"
         inkscape:connector-curvature="0"
         id="path4867"
         d="m -184.875,503.23718 c -3.90427,0.28831 -14.11895,2.79286 -21.125,2.625 -7.01236,-0.16801 -16.0234,-4.51407 -20.375,-3.625 -0.27021,4.18237 11.04331,4.91676 11.875,8 1.82731,6.289 -10.78824,16.91572 -7.875,18.625 3.42746,2.01098 12.79603,-10.67127 16.75,-12 4.3773,2.24922 4.13051,8.67695 11.25,15.125 1.14531,0.12803 2.32567,-1.13711 2.625,-2.25 -1.01976,-5.8432 -5.59102,-11.98065 -6.125,-17.5 2.05522,-4.07483 9.46389,-3.8303 12.625,-6.75 0.28007,-0.51339 0.82598,-1.87767 0.375,-2.25 z"
         style="fill:#ffff00;fill-opacity:1;fill-rule:evenodd;stroke:none;stroke-width:1px;stroke-linecap:butt;stroke-linejoin:miter;stroke-opacity:1" />
    </g>
    <g
       inkscape:export-ydpi="90"
       inkscape:export-xdpi="90"
       inkscape:export-filename="C:\Users\Alex\Pictures\mag\m6.png"
       style="opacity:1"
       transform="matrix(4.4122292,0,0,4.429722,1276.7505,-2066.8772)"
       id="g5753">
      <path
         style="fill:#1156af;fill-opacity:1;fill-rule:evenodd;stroke:none;stroke-width:1px;stroke-linecap:butt;stroke-linejoin:miter;stroke-opacity:1"
         d="m -215.625,497.36218 c 5.19549,-3.25479 3.99451,-14.91448 8.375,-16.375 4.3285,-1.44318 5.0614,13.16976 10.75,16.375 7.99148,4.50279 27.5,1 27.5,1 0.21546,6.15443 -17.27543,7.98676 -20.75,16 -3.29706,7.60386 4.50489,22.02094 2.375,24.75 -2.33971,2.9979 -11.8349,-12.62121 -19.75,-13.375 -6.07734,-0.57877 -16.75716,10.02632 -20.625,8 -2.85144,-1.49384 8.22632,-12.48666 6.625,-19 -1.96352,-7.98657 -18.68398,-11.9456 -18,-16.875 0.41527,-2.99285 16.86022,3.65959 23.5,-0.5 z"
         id="path5755"
         inkscape:connector-curvature="0"
         sodipodi:nodetypes="sssssssssss" />
      <path
         style="fill:#ffc701;fill-opacity:1;fill-rule:evenodd;stroke:none;stroke-width:1px;stroke-linecap:butt;stroke-linejoin:miter;stroke-opacity:1"
         d="m -206.625,492.23718 c 3.2852,-0.3572 4.28689,6.92967 2.375,9.625 -0.50853,0.71691 -1.98222,0.8495 -2.625,0.25 -2.40795,-2.24584 -3.02343,-9.51908 0.25,-9.875 z"
         id="path5757"
         inkscape:connector-curvature="0"
         sodipodi:nodetypes="ssss" />
      <path
         style="fill:#fecc03;fill-opacity:1;fill-rule:evenodd;stroke:none;stroke-width:1px;stroke-linecap:butt;stroke-linejoin:miter;stroke-opacity:1"
         d="m -184.875,503.23718 c -3.90427,0.28831 -14.11895,2.79286 -21.125,2.625 -7.01236,-0.16801 -16.0234,-4.51407 -20.375,-3.625 -0.27021,4.18237 11.04331,4.91676 11.875,8 1.82731,6.289 -10.78824,16.91572 -7.875,18.625 3.42746,2.01098 12.79603,-10.67127 16.75,-12 4.3773,2.24922 4.13051,8.67695 11.25,15.125 1.14531,0.12803 2.32567,-1.13711 2.625,-2.25 -1.01976,-5.8432 -5.59102,-11.98065 -6.125,-17.5 2.05522,-4.07483 9.46389,-3.8303 12.625,-6.75 0.28007,-0.51339 0.82598,-1.87767 0.375,-2.25 z"
         id="path5759"
         inkscape:connector-curvature="0"
         sodipodi:nodetypes="ccccscccccc" />
    </g>
  </g>
</svg>
